<svg width="24" height="24" viewBox="0 0 24 24" fill="none" xmlns="http://www.w3.org/2000/svg">
<path d="M22.6758 0C23.4071 0 24 0.592879 24 1.32422V22.6758C24 23.4071 23.4071 24 22.6758 24H1.32422C0.592879 24 0 23.4071 0 22.6758V1.32422C0 0.592879 0.592879 0 1.32422 0H22.6758ZM17.4746 3.62402C14.7126 3.62402 12.8105 5.30742 12.8105 8.41211V11.082H9.69141V14.7041H12.8105V23.998H16.5576V14.7041H19.6768L20.1426 11.082H16.5576V8.77051C16.5576 7.72216 16.8499 7.00684 18.3525 7.00684H20.2705V3.76172C19.3417 3.66511 18.4084 3.61926 17.4746 3.62402Z" fill="#303030"/>
</svg>
