<svg width="24" height="24" viewBox="0 0 24 24" fill="none" xmlns="http://www.w3.org/2000/svg">
<path d="M0 11.9999C0 16.9135 2.9548 21.1348 7.183 22.9907C7.14925 22.1528 7.177 21.1469 7.39188 20.2352C7.6226 19.2611 8.93593 13.6965 8.93593 13.6965C8.93593 13.6965 8.55259 12.9303 8.55259 11.7979C8.55259 10.0196 9.58328 8.69151 10.8669 8.69151C11.9584 8.69151 12.4858 9.51133 12.4858 10.4931C12.4858 11.5903 11.7859 13.2315 11.426 14.7516C11.1254 16.0245 12.0643 17.0628 13.32 17.0628C15.5937 17.0628 17.125 14.1426 17.125 10.6828C17.125 8.05281 15.3536 6.0843 12.1317 6.0843C8.49156 6.0843 6.22385 8.79885 6.22385 11.831C6.22385 12.8765 6.5321 13.6137 7.01491 14.1846C7.23691 14.4469 7.26775 14.5523 7.18741 14.8534C7.12985 15.0742 6.99766 15.6058 6.94291 15.8164C6.86304 16.1203 6.61676 16.229 6.34207 16.1168C4.66545 15.4323 3.88461 13.5963 3.88461 11.5323C3.88461 8.12359 6.75954 4.0362 12.461 4.0362C17.0426 4.0362 20.058 7.35149 20.058 10.9102C20.058 15.6176 17.4409 19.1343 13.5831 19.1343C12.2876 19.1343 11.0689 18.434 10.6515 17.6386C10.6515 17.6386 9.9548 20.4034 9.80724 20.9373C9.55281 21.8625 9.05481 22.7872 8.59947 23.5079C9.70361 23.8344 10.849 24.0001 12.0004 24C18.627 24 24 18.6274 24 11.9999C24 5.37257 18.627 0 12.0004 0C5.37317 0 0 5.37257 0 11.9999Z" fill="#303030"/>
</svg>
